solid hill
facet normal 0.098018 -0.000000 0.995185
outer loop
vertex 0.000000 49.999996 50.000004
vertex 0.000000 -50.000004 49.999996
vertex 9.754517 -50.000004 49.039257
endloop
endfacet
facet normal 0.098017 -0.000000 0.995185
outer loop
vertex 0.000000 49.999996 50.000004
vertex 9.754517 -50.000004 49.039257
vertex 9.754517 49.999996 49.039265
endloop
endfacet
facet normal 0.290285 -0.000000 0.956940
outer loop
vertex 9.754517 49.999996 49.039265
vertex 9.754517 -50.000004 49.039257
vertex 19.134172 -50.000004 46.193970
endloop
endfacet
facet normal 0.290284 -0.000000 0.956940
outer loop
vertex 9.754517 49.999996 49.039265
vertex 19.134172 -50.000004 46.193970
vertex 19.134172 49.999996 46.193977
endloop
endfacet
facet normal 0.471396 -0.000000 0.881922
outer loop
vertex 19.134172 49.999996 46.193977
vertex 19.134172 -50.000004 46.193970
vertex 27.778513 -50.000000 41.573475
endloop
endfacet
facet normal 0.471398 -0.000000 0.881921
outer loop
vertex 19.134172 49.999996 46.193977
vertex 27.778513 -50.000000 41.573475
vertex 27.778513 50.000000 41.573483
endloop
endfacet
facet normal 0.634393 -0.000000 0.773011
outer loop
vertex 27.778513 50.000000 41.573483
vertex 27.778513 -50.000000 41.573475
vertex 35.355339 -50.000000 35.355335
endloop
endfacet
facet normal 0.634393 -0.000000 0.773011
outer loop
vertex 27.778513 50.000000 41.573483
vertex 35.355339 -50.000000 35.355335
vertex 35.355339 50.000000 35.355343
endloop
endfacet
facet normal 0.773010 -0.000000 0.634393
outer loop
vertex 35.355339 50.000000 35.355343
vertex 35.355339 -50.000000 35.355335
vertex 41.573483 -50.000000 27.778507
endloop
endfacet
facet normal 0.773010 -0.000000 0.634393
outer loop
vertex 35.355339 50.000000 35.355343
vertex 41.573483 -50.000000 27.778507
vertex 41.573483 50.000000 27.778511
endloop
endfacet
facet normal 0.881921 -0.000000 0.471397
outer loop
vertex 41.573483 50.000000 27.778511
vertex 41.573483 -50.000000 27.778507
vertex 46.193974 -50.000000 19.134169
endloop
endfacet
facet normal 0.881921 0.000000 0.471396
outer loop
vertex 41.573483 50.000000 27.778511
vertex 46.193974 -50.000000 19.134169
vertex 46.193974 50.000000 19.134172
endloop
endfacet
facet normal 0.956940 0.000000 0.290285
outer loop
vertex 46.193974 50.000000 19.134172
vertex 46.193974 -50.000000 19.134169
vertex 49.039261 -50.000000 9.754516
endloop
endfacet
facet normal 0.956940 -0.000000 0.290285
outer loop
vertex 46.193974 50.000000 19.134172
vertex 49.039261 -50.000000 9.754516
vertex 49.039261 50.000000 9.754519
endloop
endfacet
facet normal 0.995185 0.000000 0.098017
outer loop
vertex 49.039261 50.000000 9.754519
vertex 49.039261 -50.000000 9.754516
vertex 50.000000 -50.000000 0.000002
endloop
endfacet
facet normal 0.995185 -0.000000 0.098017
outer loop
vertex 49.039261 50.000000 9.754519
vertex 50.000000 -50.000000 0.000002
vertex 50.000000 50.000000 0.000006
endloop
endfacet
facet normal 0.995185 0.000000 -0.098017
outer loop
vertex 50.000000 50.000000 0.000006
vertex 50.000000 -50.000000 0.000002
vertex 49.039265 -50.000000 -9.754512
endloop
endfacet
facet normal 0.995185 -0.000000 -0.098017
outer loop
vertex 50.000000 50.000000 0.000006
vertex 49.039265 -50.000000 -9.754512
vertex 49.039265 50.000000 -9.754508
endloop
endfacet
facet normal 0.956940 0.000000 -0.290285
outer loop
vertex 49.039265 50.000000 -9.754508
vertex 49.039265 -50.000000 -9.754512
vertex 46.193977 -50.000000 -19.134165
endloop
endfacet
facet normal 0.956940 0.000000 -0.290285
outer loop
vertex 49.039265 50.000000 -9.754508
vertex 46.193977 -50.000000 -19.134165
vertex 46.193977 50.000000 -19.134161
endloop
endfacet
facet normal 0.881922 0.000000 -0.471396
outer loop
vertex 46.193977 50.000000 -19.134161
vertex 46.193977 -50.000000 -19.134165
vertex 41.573483 -50.000000 -27.778511
endloop
endfacet
facet normal 0.881921 0.000000 -0.471397
outer loop
vertex 46.193977 50.000000 -19.134161
vertex 41.573483 -50.000000 -27.778511
vertex 41.573483 50.000000 -27.778507
endloop
endfacet
facet normal 0.773010 0.000000 -0.634393
outer loop
vertex 41.573483 50.000000 -27.778507
vertex 41.573483 -50.000000 -27.778511
vertex 35.355339 -50.000000 -35.355343
endloop
endfacet
facet normal 0.773010 0.000000 -0.634393
outer loop
vertex 41.573483 50.000000 -27.778507
vertex 35.355339 -50.000000 -35.355343
vertex 35.355339 50.000000 -35.355335
endloop
endfacet
facet normal 0.634393 0.000000 -0.773011
outer loop
vertex 35.355339 50.000000 -35.355335
vertex 35.355339 -50.000000 -35.355343
vertex 27.778509 -50.000000 -41.573486
endloop
endfacet
facet normal 0.634393 0.000000 -0.773010
outer loop
vertex 35.355339 50.000000 -35.355335
vertex 27.778509 -50.000000 -41.573486
vertex 27.778509 50.000000 -41.573479
endloop
endfacet
facet normal 0.471397 0.000000 -0.881921
outer loop
vertex 27.778509 50.000000 -41.573479
vertex 27.778509 -50.000000 -41.573486
vertex 19.134163 -49.999996 -46.193985
endloop
endfacet
facet normal 0.471397 0.000000 -0.881921
outer loop
vertex 27.778509 50.000000 -41.573479
vertex 19.134163 -49.999996 -46.193985
vertex 19.134163 50.000004 -46.193977
endloop
endfacet
facet normal 0.290284 0.000000 -0.956940
outer loop
vertex 19.134163 50.000004 -46.193977
vertex 19.134163 -49.999996 -46.193985
vertex 9.754504 -49.999996 -49.039268
endloop
endfacet
facet normal 0.290284 0.000000 -0.956940
outer loop
vertex 19.134163 50.000004 -46.193977
vertex 9.754504 -49.999996 -49.039268
vertex 9.754504 50.000004 -49.039261
endloop
endfacet
facet normal 0.098017 0.000000 -0.995185
outer loop
vertex 9.754504 50.000004 -49.039261
vertex 9.754504 -49.999996 -49.039268
vertex -0.000016 -49.999996 -50.000004
endloop
endfacet
facet normal 0.098018 0.000000 -0.995185
outer loop
vertex 9.754504 50.000004 -49.039261
vertex -0.000016 -49.999996 -50.000004
vertex -0.000016 50.000004 -49.999996
endloop
endfacet
facet normal -0.098018 0.000000 -0.995185
outer loop
vertex -0.000016 50.000004 -49.999996
vertex -0.000016 -49.999996 -50.000004
vertex -9.754537 -49.999996 -49.039265
endloop
endfacet
facet normal -0.098017 0.000000 -0.995185
outer loop
vertex -0.000016 50.000004 -49.999996
vertex -9.754537 -49.999996 -49.039265
vertex -9.754537 50.000004 -49.039257
endloop
endfacet
facet normal -0.290285 0.000000 -0.956940
outer loop
vertex -9.754537 50.000004 -49.039257
vertex -9.754537 -49.999996 -49.039265
vertex -19.134193 -49.999996 -46.193970
endloop
endfacet
facet normal -0.290286 0.000000 -0.956940
outer loop
vertex -9.754537 50.000004 -49.039257
vertex -19.134193 -49.999996 -46.193970
vertex -19.134193 50.000004 -46.193962
endloop
endfacet
facet normal -0.471398 0.000000 -0.881921
outer loop
vertex -19.134193 50.000004 -46.193962
vertex -19.134193 -49.999996 -46.193970
vertex -27.778536 -50.000000 -41.573467
endloop
endfacet
facet normal -0.471397 0.000000 -0.881921
outer loop
vertex -19.134193 50.000004 -46.193962
vertex -27.778536 -50.000000 -41.573467
vertex -27.778536 50.000000 -41.573460
endloop
endfacet
facet normal -0.634394 0.000000 -0.773010
outer loop
vertex -27.778536 50.000000 -41.573460
vertex -27.778536 -50.000000 -41.573467
vertex -35.355362 -50.000000 -35.355320
endloop
endfacet
facet normal -0.634394 0.000000 -0.773010
outer loop
vertex -27.778536 50.000000 -41.573460
vertex -35.355362 -50.000000 -35.355320
vertex -35.355362 50.000000 -35.355312
endloop
endfacet
facet normal -0.773011 0.000000 -0.634393
outer loop
vertex -35.355362 50.000000 -35.355312
vertex -35.355362 -50.000000 -35.355320
vertex -41.573502 -50.000000 -27.778484
endloop
endfacet
facet normal -0.773011 0.000000 -0.634393
outer loop
vertex -35.355362 50.000000 -35.355312
vertex -41.573502 -50.000000 -27.778484
vertex -41.573502 50.000000 -27.778481
endloop
endfacet
facet normal -0.881922 0.000000 -0.471396
outer loop
vertex -41.573502 50.000000 -27.778481
vertex -41.573502 -50.000000 -27.778484
vertex -46.193993 -50.000000 -19.134136
endloop
endfacet
facet normal -0.881922 0.000000 -0.471396
outer loop
vertex -41.573502 50.000000 -27.778481
vertex -46.193993 -50.000000 -19.134136
vertex -46.193993 50.000000 -19.134132
endloop
endfacet
facet normal -0.956941 0.000000 -0.290284
outer loop
vertex -46.193993 50.000000 -19.134132
vertex -46.193993 -50.000000 -19.134136
vertex -49.039272 -50.000000 -9.754475
endloop
endfacet
facet normal -0.956941 0.000000 -0.290284
outer loop
vertex -46.193993 50.000000 -19.134132
vertex -49.039272 -50.000000 -9.754475
vertex -49.039272 50.000000 -9.754471
endloop
endfacet
facet normal -0.995185 0.000000 -0.098016
outer loop
vertex -49.039272 50.000000 -9.754471
vertex -49.039272 -50.000000 -9.754475
vertex -50.000000 -50.000000 0.000046
endloop
endfacet
facet normal -0.995185 -0.000000 -0.098016
outer loop
vertex -49.039272 50.000000 -9.754471
vertex -50.000000 -50.000000 0.000046
vertex -50.000000 50.000000 0.000050
endloop
endfacet
facet normal -0.995185 0.000000 0.098018
outer loop
vertex -50.000000 50.000000 0.000050
vertex -50.000000 -50.000000 0.000046
vertex -49.039253 -50.000000 9.754565
endloop
endfacet
facet normal -0.995185 0.000000 0.098018
outer loop
vertex -50.000000 50.000000 0.000050
vertex -49.039253 -50.000000 9.754565
vertex -49.039253 50.000000 9.754569
endloop
endfacet
facet normal -0.956940 0.000000 0.290286
outer loop
vertex -49.039253 50.000000 9.754569
vertex -49.039253 -50.000000 9.754565
vertex -46.193954 -50.000000 19.134222
endloop
endfacet
facet normal -0.956940 -0.000000 0.290286
outer loop
vertex -49.039253 50.000000 9.754569
vertex -46.193954 -50.000000 19.134222
vertex -46.193954 50.000000 19.134226
endloop
endfacet
facet normal -0.881921 0.000000 0.471397
outer loop
vertex -46.193954 50.000000 19.134226
vertex -46.193954 -50.000000 19.134222
vertex -41.573448 -50.000000 27.778561
endloop
endfacet
facet normal -0.881921 -0.000000 0.471398
outer loop
vertex -46.193954 50.000000 19.134226
vertex -41.573448 -50.000000 27.778561
vertex -41.573448 50.000000 27.778564
endloop
endfacet
facet normal -0.773010 0.000000 0.634394
outer loop
vertex -41.573448 50.000000 27.778564
vertex -41.573448 -50.000000 27.778561
vertex -35.355293 -50.000000 35.355381
endloop
endfacet
facet normal -0.773010 -0.000000 0.634394
outer loop
vertex -41.573448 50.000000 27.778564
vertex -35.355293 -50.000000 35.355381
vertex -35.355293 50.000000 35.355389
endloop
endfacet
facet normal -0.634392 -0.000000 0.773011
outer loop
vertex -35.355293 50.000000 35.355389
vertex -35.355293 -50.000000 35.355381
vertex -27.778456 -50.000000 41.573513
endloop
endfacet
facet normal -0.634392 -0.000000 0.773011
outer loop
vertex -35.355293 50.000000 35.355389
vertex -27.778456 -50.000000 41.573513
vertex -27.778456 50.000000 41.573521
endloop
endfacet
facet normal -0.471395 -0.000000 0.881922
outer loop
vertex -27.778456 50.000000 41.573521
vertex -27.778456 -50.000000 41.573513
vertex -19.134104 -50.000004 46.194000
endloop
endfacet
facet normal -0.471396 -0.000000 0.881922
outer loop
vertex -27.778456 50.000000 41.573521
vertex -19.134104 -50.000004 46.194000
vertex -19.134104 49.999996 46.194008
endloop
endfacet
facet normal 0.000000 -1.000000 0.000000
outer loop
vertex 19.134172 -50.000004 46.193970
vertex 9.754517 -50.000004 49.039257
vertex 0.000000 -50.000004 49.999996
endloop
endfacet
facet normal 0.000000 -1.000000 0.000000
outer loop
vertex 0.000000 -50.000004 49.999996
vertex -9.754441 -50.000004 49.039272
vertex -19.134104 -50.000004 46.194000
endloop
endfacet
facet normal -0.000001 -1.000000 -0.000003
outer loop
vertex -19.134104 -50.000004 46.194000
vertex -27.778456 -50.000000 41.573513
vertex -35.355293 -50.000000 35.355381
endloop
endfacet
facet normal 0.000000 -1.000000 -0.000002
outer loop
vertex -35.355293 -50.000000 35.355381
vertex -41.573448 -50.000000 27.778561
vertex -46.193954 -50.000000 19.134222
endloop
endfacet
facet normal 0.000000 -1.000000 0.000000
outer loop
vertex -46.193954 -50.000000 19.134222
vertex -49.039253 -50.000000 9.754565
vertex -50.000000 -50.000000 0.000046
endloop
endfacet
facet normal 0.000000 -1.000000 0.000000
outer loop
vertex -50.000000 -50.000000 0.000046
vertex -49.039272 -50.000000 -9.754475
vertex -46.193993 -50.000000 -19.134136
endloop
endfacet
facet normal 0.000000 -1.000000 0.000000
outer loop
vertex -46.193993 -50.000000 -19.134136
vertex -41.573502 -50.000000 -27.778484
vertex -35.355362 -50.000000 -35.355320
endloop
endfacet
facet normal 0.000001 -1.000000 0.000003
outer loop
vertex -35.355362 -50.000000 -35.355320
vertex -27.778536 -50.000000 -41.573467
vertex -19.134193 -49.999996 -46.193970
endloop
endfacet
facet normal 0.000000 -1.000000 0.000007
outer loop
vertex -19.134193 -49.999996 -46.193970
vertex -9.754537 -49.999996 -49.039265
vertex -0.000016 -49.999996 -50.000004
endloop
endfacet
facet normal 0.000000 -1.000000 -0.000003
outer loop
vertex -0.000016 -49.999996 -50.000004
vertex 9.754504 -49.999996 -49.039268
vertex 19.134163 -49.999996 -46.193985
endloop
endfacet
facet normal -0.000001 -1.000000 -0.000003
outer loop
vertex 19.134163 -49.999996 -46.193985
vertex 27.778509 -50.000000 -41.573486
vertex 35.355339 -50.000000 -35.355343
endloop
endfacet
facet normal 0.000000 -1.000000 0.000003
outer loop
vertex 35.355339 -50.000000 -35.355343
vertex 41.573483 -50.000000 -27.778511
vertex 46.193977 -50.000000 -19.134165
endloop
endfacet
facet normal 0.000000 -1.000000 0.000001
outer loop
vertex 46.193977 -50.000000 -19.134165
vertex 49.039265 -50.000000 -9.754512
vertex 50.000000 -50.000000 0.000002
endloop
endfacet
facet normal 0.000000 -1.000000 0.000000
outer loop
vertex 50.000000 -50.000000 0.000002
vertex 49.039261 -50.000000 9.754516
vertex 46.193974 -50.000000 19.134169
endloop
endfacet
facet normal 0.000000 -1.000000 0.000000
outer loop
vertex 46.193974 -50.000000 19.134169
vertex 41.573483 -50.000000 27.778507
vertex 35.355339 -50.000000 35.355335
endloop
endfacet
facet normal 0.000001 -1.000000 0.000000
outer loop
vertex 35.355339 -50.000000 35.355335
vertex 27.778513 -50.000000 41.573475
vertex 19.134172 -50.000004 46.193970
endloop
endfacet
facet normal 0.000000 -1.000000 0.000000
outer loop
vertex 19.134172 -50.000004 46.193970
vertex 0.000000 -50.000004 49.999996
vertex -19.134104 -50.000004 46.194000
endloop
endfacet
facet normal -0.000000 -1.000000 0.000001
outer loop
vertex -19.134104 -50.000004 46.194000
vertex -35.355293 -50.000000 35.355381
vertex -46.193954 -50.000000 19.134222
endloop
endfacet
facet normal 0.000000 -1.000000 0.000000
outer loop
vertex -46.193954 -50.000000 19.134222
vertex -50.000000 -50.000000 0.000046
vertex -46.193993 -50.000000 -19.134136
endloop
endfacet
facet normal 0.000000 -1.000000 -0.000001
outer loop
vertex -46.193993 -50.000000 -19.134136
vertex -35.355362 -50.000000 -35.355320
vertex -19.134193 -49.999996 -46.193970
endloop
endfacet
facet normal 0.000000 -1.000000 -0.000001
outer loop
vertex -19.134193 -49.999996 -46.193970
vertex -0.000016 -49.999996 -50.000004
vertex 19.134163 -49.999996 -46.193985
endloop
endfacet
facet normal -0.000000 -1.000000 0.000000
outer loop
vertex 19.134163 -49.999996 -46.193985
vertex 35.355339 -50.000000 -35.355343
vertex 46.193977 -50.000000 -19.134165
endloop
endfacet
facet normal 0.000000 -1.000000 0.000000
outer loop
vertex 46.193977 -50.000000 -19.134165
vertex 50.000000 -50.000000 0.000002
vertex 46.193974 -50.000000 19.134169
endloop
endfacet
facet normal 0.000000 -1.000000 0.000001
outer loop
vertex 46.193974 -50.000000 19.134169
vertex 35.355339 -50.000000 35.355335
vertex 19.134172 -50.000004 46.193970
endloop
endfacet
facet normal -0.000000 -1.000000 -0.000000
outer loop
vertex 19.134172 -50.000004 46.193970
vertex -19.134104 -50.000004 46.194000
vertex -46.193954 -50.000000 19.134222
endloop
endfacet
facet normal 0.000000 -1.000000 0.000000
outer loop
vertex -46.193954 -50.000000 19.134222
vertex -46.193993 -50.000000 -19.134136
vertex -19.134193 -49.999996 -46.193970
endloop
endfacet
facet normal -0.000000 -1.000000 0.000000
outer loop
vertex -19.134193 -49.999996 -46.193970
vertex 19.134163 -49.999996 -46.193985
vertex 46.193977 -50.000000 -19.134165
endloop
endfacet
facet normal 0.000000 -1.000000 -0.000000
outer loop
vertex 46.193977 -50.000000 -19.134165
vertex 46.193974 -50.000000 19.134169
vertex 19.134172 -50.000004 46.193970
endloop
endfacet
facet normal -0.000000 -1.000000 0.000000
outer loop
vertex 19.134172 -50.000004 46.193970
vertex -46.193954 -50.000000 19.134222
vertex -19.134193 -49.999996 -46.193970
endloop
endfacet
facet normal -0.000000 -1.000000 0.000000
outer loop
vertex -19.134193 -49.999996 -46.193970
vertex 46.193977 -50.000000 -19.134165
vertex 19.134172 -50.000004 46.193970
endloop
endfacet
facet normal -0.290283 -0.000000 0.956941
outer loop
vertex -19.134104 49.999996 46.194008
vertex -19.134104 -50.000004 46.194000
vertex -9.754441 -50.000004 49.039272
endloop
endfacet
facet normal -0.290283 -0.000000 0.956941
outer loop
vertex -19.134104 49.999996 46.194008
vertex -9.754441 -50.000004 49.039272
vertex -9.754441 49.999996 49.039280
endloop
endfacet
facet normal -0.098017 -0.000000 0.995185
outer loop
vertex -9.754441 49.999996 49.039280
vertex -9.754441 -50.000004 49.039272
vertex 0.000000 -50.000004 49.999996
endloop
endfacet
facet normal -0.098017 -0.000000 0.995185
outer loop
vertex -9.754441 49.999996 49.039280
vertex 0.000000 -50.000004 49.999996
vertex 0.000000 49.999996 50.000004
endloop
endfacet
facet normal 0.000000 1.000000 -0.000007
outer loop
vertex -9.754441 49.999996 49.039280
vertex 0.000000 49.999996 50.000004
vertex 9.754517 49.999996 49.039265
endloop
endfacet
facet normal 0.000001 1.000000 0.000003
outer loop
vertex 9.754517 49.999996 49.039265
vertex 19.134172 49.999996 46.193977
vertex 27.778513 50.000000 41.573483
endloop
endfacet
facet normal 0.000000 1.000000 0.000000
outer loop
vertex 27.778513 50.000000 41.573483
vertex 35.355339 50.000000 35.355343
vertex 41.573483 50.000000 27.778511
endloop
endfacet
facet normal 0.000000 1.000000 -0.000002
outer loop
vertex 41.573483 50.000000 27.778511
vertex 46.193974 50.000000 19.134172
vertex 49.039261 50.000000 9.754519
endloop
endfacet
facet normal 0.000000 1.000000 0.000000
outer loop
vertex 49.039261 50.000000 9.754519
vertex 50.000000 50.000000 0.000006
vertex 49.039265 50.000000 -9.754508
endloop
endfacet
facet normal 0.000000 1.000000 0.000000
outer loop
vertex 49.039265 50.000000 -9.754508
vertex 46.193977 50.000000 -19.134161
vertex 41.573483 50.000000 -27.778507
endloop
endfacet
facet normal 0.000000 1.000000 0.000000
outer loop
vertex 41.573483 50.000000 -27.778507
vertex 35.355339 50.000000 -35.355335
vertex 27.778509 50.000000 -41.573479
endloop
endfacet
facet normal -0.000001 1.000000 -0.000003
outer loop
vertex 27.778509 50.000000 -41.573479
vertex 19.134163 50.000004 -46.193977
vertex 9.754504 50.000004 -49.039261
endloop
endfacet
facet normal 0.000000 1.000000 0.000000
outer loop
vertex 9.754504 50.000004 -49.039261
vertex -0.000016 50.000004 -49.999996
vertex -9.754537 50.000004 -49.039257
endloop
endfacet
facet normal 0.000001 1.000000 0.000013
outer loop
vertex -9.754537 50.000004 -49.039257
vertex -19.134193 50.000004 -46.193962
vertex -27.778536 50.000000 -41.573460
endloop
endfacet
facet normal 0.000000 1.000000 0.000000
outer loop
vertex -27.778536 50.000000 -41.573460
vertex -35.355362 50.000000 -35.355312
vertex -41.573502 50.000000 -27.778481
endloop
endfacet
facet normal 0.000000 1.000000 -0.000002
outer loop
vertex -41.573502 50.000000 -27.778481
vertex -46.193993 50.000000 -19.134132
vertex -49.039272 50.000000 -9.754471
endloop
endfacet
facet normal 0.000000 1.000000 0.000000
outer loop
vertex -49.039272 50.000000 -9.754471
vertex -50.000000 50.000000 0.000050
vertex -49.039253 50.000000 9.754569
endloop
endfacet
facet normal 0.000000 1.000000 0.000000
outer loop
vertex -49.039253 50.000000 9.754569
vertex -46.193954 50.000000 19.134226
vertex -41.573448 50.000000 27.778564
endloop
endfacet
facet normal 0.000000 1.000000 0.000000
outer loop
vertex -41.573448 50.000000 27.778564
vertex -35.355293 50.000000 35.355389
vertex -27.778456 50.000000 41.573521
endloop
endfacet
facet normal -0.000001 1.000000 0.000000
outer loop
vertex -27.778456 50.000000 41.573521
vertex -19.134104 49.999996 46.194008
vertex -9.754441 49.999996 49.039280
endloop
endfacet
facet normal 0.000000 1.000000 0.000002
outer loop
vertex -9.754441 49.999996 49.039280
vertex 9.754517 49.999996 49.039265
vertex 27.778513 50.000000 41.573483
endloop
endfacet
facet normal 0.000000 1.000000 -0.000000
outer loop
vertex 27.778513 50.000000 41.573483
vertex 41.573483 50.000000 27.778511
vertex 49.039261 50.000000 9.754519
endloop
endfacet
facet normal 0.000000 1.000000 0.000000
outer loop
vertex 49.039261 50.000000 9.754519
vertex 49.039265 50.000000 -9.754508
vertex 41.573483 50.000000 -27.778507
endloop
endfacet
facet normal 0.000000 1.000000 0.000002
outer loop
vertex 41.573483 50.000000 -27.778507
vertex 27.778509 50.000000 -41.573479
vertex 9.754504 50.000004 -49.039261
endloop
endfacet
facet normal 0.000000 1.000000 0.000000
outer loop
vertex 9.754504 50.000004 -49.039261
vertex -9.754537 50.000004 -49.039257
vertex -27.778536 50.000000 -41.573460
endloop
endfacet
facet normal 0.000000 1.000000 -0.000000
outer loop
vertex -27.778536 50.000000 -41.573460
vertex -41.573502 50.000000 -27.778481
vertex -49.039272 50.000000 -9.754471
endloop
endfacet
facet normal 0.000000 1.000000 0.000000
outer loop
vertex -49.039272 50.000000 -9.754471
vertex -49.039253 50.000000 9.754569
vertex -41.573448 50.000000 27.778564
endloop
endfacet
facet normal 0.000000 1.000000 0.000002
outer loop
vertex -41.573448 50.000000 27.778564
vertex -27.778456 50.000000 41.573521
vertex -9.754441 49.999996 49.039280
endloop
endfacet
facet normal -0.000000 1.000000 0.000000
outer loop
vertex -9.754441 49.999996 49.039280
vertex 27.778513 50.000000 41.573483
vertex 49.039261 50.000000 9.754519
endloop
endfacet
facet normal 0.000000 1.000000 0.000000
outer loop
vertex 49.039261 50.000000 9.754519
vertex 41.573483 50.000000 -27.778507
vertex 9.754504 50.000004 -49.039261
endloop
endfacet
facet normal -0.000000 1.000000 -0.000000
outer loop
vertex 9.754504 50.000004 -49.039261
vertex -27.778536 50.000000 -41.573460
vertex -49.039272 50.000000 -9.754471
endloop
endfacet
facet normal 0.000000 1.000000 0.000000
outer loop
vertex -49.039272 50.000000 -9.754471
vertex -41.573448 50.000000 27.778564
vertex -9.754441 49.999996 49.039280
endloop
endfacet
facet normal -0.000000 1.000000 0.000000
outer loop
vertex -9.754441 49.999996 49.039280
vertex 49.039261 50.000000 9.754519
vertex 9.754504 50.000004 -49.039261
endloop
endfacet
facet normal -0.000000 1.000000 0.000000
outer loop
vertex 9.754504 50.000004 -49.039261
vertex -49.039272 50.000000 -9.754471
vertex -9.754441 49.999996 49.039280
endloop
endfacet
endsolid Exported from Blender-2.82 (sub 7)
